<?xml version="1.0" standalone="no"?>
<!DOCTYPE svg PUBLIC "-//W3C//DTD SVG 20010904//EN"
 "http://www.w3.org/TR/2001/REC-SVG-20010904/DTD/svg10.dtd">
<svg version="1.0" xmlns="http://www.w3.org/2000/svg"
 width="270.000000pt" height="270.000000pt" viewBox="0 0 270.000000 270.000000"
 preserveAspectRatio="xMidYMid meet">
<metadata>
Created by potrace 1.11, written by Peter Selinger 2001-2013
</metadata>
<g transform="translate(0.000000,270.000000) scale(0.100000,-0.100000)"
fill="#000000" stroke="none">
<path d="M47 2400 c-14 -11 -29 -32 -34 -47 -5 -16 -8 -341 -7 -723 1 -591 4
-706 17 -768 68 -311 328 -547 637 -577 112 -11 129 -11 203 -3 252 30 466
178 577 397 170 338 71 770 -225 983 -219 156 -527 177 -765 52 -74 -39 -171
-116 -204 -163 -11 -17 -23 -31 -26 -31 -3 0 -5 182 -5 403 1 222 -3 417 -7
433 -15 58 -110 84 -161 44z m846 -810 c144 -30 279 -134 352 -271 47 -90 67
-175 67 -284 0 -167 -51 -293 -164 -407 -115 -116 -242 -164 -413 -155 -113 6
-184 27 -267 80 -161 103 -252 275 -252 477 1 116 15 183 60 275 111 227 353
339 617 285z"/>
<path d="M2437 2404 c-212 -50 -370 -229 -402 -454 -3 -25 -8 -54 -10 -65 -2
-11 -4 -50 -4 -87 l-1 -68 -106 0 c-103 0 -106 -1 -135 -29 -44 -45 -38 -115
14 -143 13 -7 63 -12 122 -13 l100 0 5 -595 c3 -327 9 -603 14 -613 11 -23 58
-47 93 -47 22 0 82 27 95 42 1 2 5 275 8 608 l5 605 177 0 c163 0 179 2 205
21 22 17 29 30 31 66 3 40 -1 48 -28 72 -32 26 -32 26 -212 26 l-181 0 6 88
c9 122 15 149 48 218 54 115 148 180 276 191 79 7 113 21 132 56 17 33 7 88
-20 113 -27 24 -147 28 -232 8z"/>
</g>
</svg>
